<svg width="103" height="35" viewBox="0 0 103 35" fill="none" xmlns="http://www.w3.org/2000/svg">
<path d="M9.79481 31.3965H3.25282V26.5082H8.32286C8.40463 26.0539 8.44098 25.5905 8.44098 25.118C8.44098 24.6819 8.40463 24.2185 8.32286 23.7551H3.25282V19.6936H9.63125C9.71303 19.2575 9.74938 18.785 9.74938 18.3034C9.74938 17.8491 9.70394 17.4039 9.63125 16.9678H0V34.1132H9.80389C9.88567 33.6771 9.92202 33.2137 9.92202 32.723C9.91293 32.2869 9.87658 31.8326 9.79481 31.3965Z" fill="#575756"/>
<path d="M23.6874 34.14V26.2623C23.6874 24.645 23.333 23.4457 22.6425 22.7006C21.9519 21.9555 20.907 21.583 19.535 21.583C19.0989 21.583 18.6991 21.6375 18.3448 21.7556C17.9904 21.8738 17.6633 22.0282 17.3726 22.21C17.0818 22.4008 16.8274 22.6097 16.6093 22.846C16.3913 23.0822 16.2004 23.3185 16.046 23.5547L15.8461 23.8636L15.7916 23.5002C15.7734 23.3911 15.7552 23.2548 15.728 23.0913C15.7007 22.9096 15.6735 22.746 15.6462 22.6007C15.6189 22.4462 15.5826 22.2917 15.5372 22.1282C15.5099 22.0191 15.4826 21.9283 15.4463 21.8647C15.2464 21.8192 15.0465 21.792 14.8739 21.7738C14.674 21.7466 14.4287 21.7375 14.1652 21.7375C13.8926 21.7375 13.6473 21.7466 13.4292 21.7738C13.2475 21.792 13.0567 21.8192 12.8749 21.8556V34.1582C13.9471 34.3217 14.9647 34.3217 16.0369 34.1582V27.707C16.0369 27.0165 16.1096 26.4441 16.264 26.0079C16.4185 25.5718 16.6184 25.2174 16.8637 24.9721C17.1181 24.7177 17.3998 24.5542 17.7178 24.4633C18.0177 24.3815 18.3175 24.3361 18.5992 24.3361C19.317 24.3361 19.8258 24.5996 20.1165 25.1084C20.3982 25.5991 20.5345 26.2987 20.5345 27.1891V34.1491C21.5976 34.3126 22.6152 34.3126 23.6874 34.14Z" fill="#575756"/>
<path d="M34.464 34.1769C35.2091 34.0315 35.8723 33.8679 36.4084 33.7044V26.5355C36.4084 24.8091 35.945 23.537 35.0364 22.7647C33.7735 21.6835 31.8018 21.3473 29.2213 21.7562C28.5489 21.8652 27.8675 22.0288 27.2042 22.2559C27.2133 22.7102 27.2678 23.11 27.3678 23.4462C27.4677 23.7824 27.6222 24.1367 27.813 24.5002C28.767 24.1822 29.6847 24.0186 30.5297 24.0186C30.9386 24.0186 31.3111 24.0459 31.6564 24.0913C32.0017 24.1458 32.3015 24.2458 32.5468 24.3911C32.7922 24.5456 32.992 24.7546 33.1283 25.0181C33.2646 25.2816 33.3373 25.6178 33.3373 26.0266V26.4719L33.1829 26.4628C32.6195 26.4173 32.1016 26.3901 31.6382 26.3901C31.0022 26.3901 30.3571 26.4537 29.7301 26.59C29.1032 26.7263 28.5217 26.9443 28.0129 27.2533C27.5041 27.5531 27.0952 27.962 26.7772 28.4708C26.4592 28.9705 26.3047 29.5975 26.3047 30.3516C26.3047 31.0967 26.4319 31.7418 26.6954 32.2506C26.9498 32.7594 27.3132 33.1774 27.7857 33.5045C28.2582 33.8316 28.8397 34.0678 29.503 34.2132C30.1754 34.3586 30.9295 34.4313 31.7382 34.4313C32.7558 34.4131 33.6644 34.3313 34.464 34.1769ZM31.0931 31.9962C30.7932 31.9689 30.5115 31.9053 30.2481 31.7963C29.9755 31.6782 29.7392 31.5055 29.5484 31.2602C29.3485 31.0058 29.2486 30.6515 29.2486 30.2062C29.2486 29.5248 29.503 29.025 30.0027 28.7161C30.4843 28.4254 31.1385 28.2709 31.9562 28.2709C32.138 28.2709 32.3469 28.28 32.5741 28.3072C32.8012 28.3345 33.0193 28.3618 33.2101 28.389L33.3282 28.4072V31.8417L33.2101 31.8599C33.0284 31.8962 32.8194 31.9326 32.5741 31.9689C32.3288 32.0144 32.0744 32.0325 31.829 32.0325C31.6382 32.0325 31.3929 32.0144 31.0931 31.9962Z" fill="#575756"/>
<path d="M50.6002 30.5693C50.9182 29.7606 51.0727 28.8248 51.0727 27.798C51.0727 26.735 50.9455 25.8082 50.691 25.0268C50.4366 24.2545 50.0914 23.6094 49.6461 23.1005C49.21 22.5917 48.683 22.2101 48.0833 21.9648C47.4837 21.7104 46.8204 21.5832 46.1117 21.5832C45.412 21.5832 44.776 21.7194 44.2308 21.992C43.6948 22.2646 43.3041 22.6008 43.0769 23.0097L42.8134 23.4912V16.6676C41.7413 16.504 40.7509 16.504 39.6787 16.6676V33.7585C39.9513 33.8585 40.2602 33.9402 40.5873 34.022C40.9508 34.1038 41.3324 34.1765 41.7412 34.2401C42.132 34.2946 42.5317 34.34 42.9315 34.3764C43.3222 34.4127 43.7038 34.4218 44.0491 34.4218C45.1394 34.4218 46.1389 34.2673 47.0112 33.9584C47.8744 33.6495 48.6194 33.2134 49.21 32.6409C49.8279 32.0685 50.2822 31.378 50.6002 30.5693ZM46.8295 30.8691C46.2025 31.5052 45.3393 31.8323 44.2581 31.8323C44.0219 31.8323 43.7947 31.8232 43.5766 31.805C43.3495 31.7868 43.1314 31.7414 42.9224 31.6778L42.8316 31.6505V26.9894C42.8316 26.0353 43.0496 25.3175 43.4858 24.8632C43.9219 24.4089 44.4943 24.1818 45.1758 24.1818C46.1117 24.1818 46.784 24.5089 47.1838 25.154C47.5654 25.7809 47.7653 26.6986 47.7653 27.8798C47.7744 29.2336 47.4564 30.2331 46.8295 30.8691Z" fill="#575756"/>
<path d="M64.6746 27.4254C64.6746 26.6076 64.5565 25.8262 64.3202 25.1084C64.084 24.3997 63.7296 23.7728 63.2662 23.2549C62.8028 22.7369 62.2395 22.3281 61.5853 22.0282C60.922 21.7284 60.1588 21.583 59.3138 21.583C58.3325 21.583 57.4693 21.7556 56.7424 22.0918C56.0155 22.428 55.3977 22.8914 54.8979 23.4729C54.4073 24.0544 54.0257 24.745 53.7713 25.5355C53.5169 26.3259 53.3896 27.18 53.3896 28.0886C53.3896 29.0063 53.5169 29.8695 53.7622 30.6418C54.0075 31.4142 54.3891 32.0865 54.8979 32.6408C55.4068 33.195 56.07 33.6402 56.8787 33.9492C57.6874 34.2672 58.6778 34.4217 59.8226 34.4217C61.3491 34.4217 62.7302 34.1945 63.9477 33.7402C63.9204 33.2677 63.8568 32.8225 63.7387 32.4227C63.6297 32.032 63.4934 31.6867 63.348 31.396C62.8574 31.5686 62.3395 31.714 61.8034 31.8049C61.2219 31.9139 60.6494 31.9684 60.0952 31.9684C59.0685 31.9684 58.2235 31.7413 57.5874 31.287C56.9423 30.8327 56.5789 30.0876 56.5062 29.0699L56.4971 28.9155H64.5746C64.6019 28.761 64.6201 28.5611 64.6382 28.334C64.6655 28.0341 64.6746 27.7252 64.6746 27.4254ZM56.5153 26.7984L56.5334 26.644C56.6152 25.7899 56.8878 25.1175 57.3239 24.645C57.7691 24.1635 58.4233 23.9181 59.2684 23.9181C60.0225 23.9181 60.6131 24.1725 61.0401 24.6814C61.4581 25.1811 61.6853 25.8444 61.7125 26.644L61.7216 26.7893L56.5153 26.7984Z" fill="#575756"/>
<path d="M73.4062 33.8403V33.4859C73.4062 32.9044 73.3335 32.3047 73.1791 31.7141C73.07 31.7323 72.961 31.7505 72.852 31.7596C72.3613 31.8141 71.9524 31.7868 71.6435 31.6778C71.4254 31.6051 71.2437 31.4688 71.0983 31.278C70.9621 31.0872 70.8712 30.8328 70.8076 30.5057C70.7531 30.1877 70.7167 29.7788 70.7167 29.27V16.6676C69.6446 16.504 68.6542 16.504 67.582 16.6676V30.0241C67.582 31.5233 67.9455 32.6228 68.6633 33.277C69.3811 33.9402 70.3624 34.2673 71.5617 34.2673C71.8616 34.2673 72.1978 34.2492 72.5521 34.2219C72.8701 34.1946 73.1427 34.1492 73.3789 34.0765C73.3971 33.9948 73.4062 33.913 73.4062 33.8403Z" fill="#575756"/>
<path fill-rule="evenodd" clip-rule="evenodd" d="M91.5152 3.54729C90.9155 2.98396 90.2341 2.45697 89.4527 1.99358C85.5002 -0.350635 81.3388 -0.814021 77.668 1.61196C84.0465 4.51951 87.1721 8.15394 88.6985 11.1887C88.8894 9.30787 89.6253 5.88242 91.5152 3.54729Z" fill="#575756"/>
<path d="M87.2906 17.5031C85.2371 18.3936 82.584 18.3027 80.1489 17.2578C79.631 17.9302 79.1585 18.9387 78.8587 19.5838C78.259 20.8741 77.9682 21.8554 77.8047 22.4369C81.4482 24.0633 86.4456 22.9003 87.2906 17.5031Z" fill="url(#paint0_linear_103_12)"/>
<path d="M87.626 20.9286C89.0525 20.3926 90.7789 19.6293 92.4961 18.5662C95.967 16.4128 97.3844 12.9692 98.2204 10.625C99.0563 8.28079 99.8831 4.06485 103 2.35666C103 2.35666 101.391 1.09369 99.0472 0.911971C95.331 0.630302 92.0509 3.78317 90.6516 8.73509C89.3614 13.2872 89.2433 17.4941 87.626 20.9286Z" fill="url(#paint1_linear_103_12)"/>
<defs>
<linearGradient id="paint0_linear_103_12" x1="77.8029" y1="20.1887" x2="87.2888" y2="20.1887" gradientUnits="userSpaceOnUse">
<stop stop-color="#BF1622"/>
<stop offset="1" stop-color="#E42D1E"/>
</linearGradient>
<linearGradient id="paint1_linear_103_12" x1="87.6304" y1="10.9116" x2="103.004" y2="10.9116" gradientUnits="userSpaceOnUse">
<stop stop-color="#F9B500"/>
<stop offset="1" stop-color="#FFDD00"/>
</linearGradient>
</defs>
</svg>
