<svg width="25" height="26" viewBox="0 0 25 26" fill="none" xmlns="http://www.w3.org/2000/svg">
<path d="M21.7393 25.0815C15.6358 25.0815 9.53216 25.0815 3.42918 25.0815C3.38369 25.0669 3.33941 25.0457 3.29331 25.0384C2.00867 24.8261 1.07702 24.131 0.526288 22.9574C0.361916 22.6074 0.295197 22.2119 0.183594 21.8371C0.183594 15.7347 0.183594 9.63295 0.183594 3.53058C0.199364 3.4772 0.219986 3.42504 0.229084 3.37106C0.53114 1.55387 2.00927 0.289242 3.86406 0.287422C9.67591 0.28257 15.4878 0.281963 21.299 0.294094C21.7036 0.2947 22.1251 0.360813 22.5084 0.488792C24.0436 1.0001 24.9831 2.35935 24.9837 4.01763C24.9855 9.79551 24.9843 15.574 24.9843 21.3519C24.9843 21.4325 24.9855 21.5132 24.9801 21.5939C24.88 23.0041 24.2146 24.057 22.9506 24.6933C22.577 24.8813 22.1451 24.9553 21.7393 25.0815ZM1.63686 12.6844C1.63686 15.5655 1.63504 18.4472 1.63746 21.3282C1.63868 22.6826 2.56607 23.6264 3.90895 23.627C9.69714 23.6306 15.4847 23.6312 21.2729 23.6264C22.5818 23.6252 23.5274 22.6899 23.5286 21.3864C23.5347 15.5837 23.5347 9.78034 23.5286 3.9776C23.5274 2.68507 22.5867 1.7419 21.2954 1.74069C15.4914 1.73401 9.68683 1.73401 3.88287 1.74736C3.54685 1.74796 3.18414 1.82742 2.88147 1.97056C2.02201 2.37573 1.63807 3.10358 1.63746 4.04007C1.63565 6.92173 1.63686 9.80279 1.63686 12.6844Z" fill="#8D8B8B"/>
<path d="M10.8745 12.6809C11.3197 13.1048 11.623 13.5876 11.7698 14.1675C12.2077 15.8973 10.9443 17.6812 9.15983 17.7497C7.66047 17.8073 6.15747 17.7631 4.65629 17.7637C4.64233 17.7637 4.62838 17.7515 4.60352 17.74C4.60352 14.3737 4.60352 11.0038 4.60352 7.6181C4.65568 7.61143 4.70905 7.5993 4.76182 7.5993C6.17445 7.59869 7.58708 7.58474 8.9997 7.60354C10.661 7.62538 11.9487 9.02527 11.8492 10.6835C11.8025 11.4666 11.4713 12.1241 10.8745 12.6809ZM6.05557 11.9476C7.07455 11.9476 8.07291 11.9591 9.07067 11.9415C9.45461 11.9348 9.78759 11.7553 10.0375 11.4575C10.4239 10.9965 10.5167 10.4743 10.2734 9.92294C10.0217 9.35098 9.55286 9.06591 8.9348 9.05438C8.2015 9.04043 7.46759 9.05074 6.73368 9.05074C6.51047 9.05074 6.28726 9.05074 6.05496 9.05074C6.05557 10.0261 6.05557 10.9741 6.05557 11.9476ZM6.05557 16.3116C7.05817 16.3116 8.03349 16.3249 9.00819 16.3061C9.51526 16.2964 9.92164 16.0544 10.1861 15.6141C10.7775 14.6291 10.0951 13.4312 8.9251 13.4124C8.00619 13.3978 7.08668 13.4093 6.16778 13.4105C6.13017 13.4105 6.09317 13.4227 6.05496 13.4293C6.05557 14.3919 6.05557 15.3399 6.05557 16.3116Z" fill="#8D8B8B"/>
<path d="M20.5581 14.8624C18.6736 14.8624 16.8024 14.8624 14.8973 14.8624C15.1872 15.6054 15.6943 16.0785 16.4422 16.2471C17.4551 16.4746 18.2381 16.0882 18.844 15.2336C19.2498 15.4677 19.658 15.7031 20.0662 15.9384C19.4027 17.2491 17.5752 18.1862 15.7998 17.5791C13.9657 16.9519 12.9467 15.0686 13.4337 13.2181C13.9184 11.3766 15.7392 10.2206 17.6104 10.5657C19.5561 10.9242 20.7831 12.6989 20.5581 14.8624ZM18.9696 13.4049C18.713 12.5181 17.7511 11.8916 16.7879 11.965C15.9199 12.0317 15.0204 12.7292 14.9379 13.4049C16.276 13.4049 17.6134 13.4049 18.9696 13.4049Z" fill="#8D8B8B"/>
<path d="M14.0488 9.0345C14.0488 8.5523 14.0488 8.08709 14.0488 7.61035C15.977 7.61035 17.8943 7.61035 19.831 7.61035C19.831 8.07678 19.831 8.54684 19.831 9.0345C17.9131 9.0345 15.9904 9.0345 14.0488 9.0345Z" fill="#8D8B8B"/>
</svg>
