<svg width="25" height="26" viewBox="0 0 25 26" fill="none" xmlns="http://www.w3.org/2000/svg">
<path d="M23.135 22.5223L15.0469 10.7719L14.1324 9.4429L8.34664 1.0374L7.86708 0.34082H0.757812L2.49175 2.86054L10.1846 14.0379L11.099 15.3655L17.2801 24.3462L17.7596 25.0422H24.8691L23.135 22.5223ZM18.6045 23.4337L12.1829 14.1036L11.2685 12.7754L3.81704 1.94897H7.02237L13.0486 10.7046L13.963 12.0327L21.8101 23.4337H18.6045Z" fill="#8D8B8B"/>
<path d="M11.269 12.7754L12.1834 14.1035L11.0993 15.3652L2.7816 25.0418H0.730469L10.1849 14.0377L11.269 12.7754Z" fill="#8D8B8B"/>
<path d="M24.0135 0.34082L15.0473 10.7719L13.9632 12.0327L13.0488 10.7046L14.1329 9.4429L20.2065 2.37367L21.9623 0.34082H24.0135Z" fill="#8D8B8B"/>
</svg>
